#!OML:ASF F:\VICON\USERDATA\INSTALL\Justin_Nancy\Justin_Nancy.ASF
:FULLY-SPECIFIED
:DEGREES
48
root 9.07254 17.5474 -22.115 -0.93406 -0.275729 -4.45324
lowerback 6.84661 0.323219 4.11273
upperback 0.0150467 0.900633 3.63314
thorax -3.82618 0.403135 1.36443
lowerneck -16.1554 -4.5533 -9.48702
upperneck 19.9047 -5.04594 5.22007
head 9.32044 -2.51598 2.71748
rclavicle 7.57867e-015 4.6118e-014
rhumerus -30.3568 -12.0709 -76.6077
rradius 34.2611
rwrist 3.04545
rhand -12.0655 12.3399
rfingers 7.12502
rthumb 13.9939 -17.1691
lclavicle 7.57867e-015 4.6118e-014
lhumerus -38.2761 16.711 80.5453
lradius 23.2437
lwrist -14.0641
lhand -14.4285 22.6818
lfingers 7.12502
lthumb 11.7159 52.3342
rfemur 3.05781 5.40557 32.0338
rtibia 17.0737
rfoot -12.2659 -2.74816
rtoes 5.70949
lfemur -29.0125 2.03154 -15.0975
ltibia 43.3945
lfoot -10.9134 6.76228
ltoes -5.17711
49
root 9.07762 17.5739 -21.9732 -0.739642 -0.383604 -4.45008
lowerback 6.79875 0.353886 4.09971
upperback -0.0902771 0.943463 3.6438
thorax -3.90903 0.423053 1.37905
lowerneck -15.8129 -4.48603 -9.4755
upperneck 19.6859 -4.97571 5.1915
head 9.17488 -2.48862 2.71807
rclavicle -1.16786e-015 -8.74653e-015
rhumerus -30.1699 -11.5917 -76.6892
rradius 34.7732
rwrist 2.6504
rhand -11.7902 12.6462
rfingers 7.12502
rthumb 14.2591 -16.8442
lclavicle -1.16786e-015 -8.74653e-015
lhumerus -38.428 16.4277 80.9209
lradius 22.5791
lwrist -10.7945
lhand -16.4786 20.7803
lfingers 7.12502
lthumb 9.73843 50.5351
rfemur 3.69557 5.37593 32.0819
rtibia 16.4237
rfoot -12.2563 -2.88679
rtoes 4.54762
lfemur -28.8346 1.06712 -14.7374
ltibia 41.3324
lfoot -12.139 6.71482
ltoes 0.760913
50
root 9.08814 17.5272 -21.8223 -0.578956 -0.427149 -4.48
lowerback 6.63479 0.383932 4.18268
upperback -0.0845288 0.978451 3.64796
thorax -3.80933 0.440122 1.33433
lowerneck -15.7244 -4.50854 -9.58609
upperneck 19.5415 -5.00581 5.29301
head 9.11706 -2.50004 2.76755
rclavicle -1.0312e-014 -3.89618e-014
rhumerus -29.7952 -11.1843 -76.8005
rradius 35.21
rwrist 2.42744
rhand -11.6471 12.5882
rfingers 7.12502
rthumb 14.397 -16.8925
lclavicle -1.0312e-014 -3.89618e-014
lhumerus -38.5333 16.4363 81.0704
lradius 22.2643
lwrist -9.63911
lhand -17.1453 21.2632
lfingers 7.12502
lthumb 9.09514 51.0471
rfemur 4.38248 5.30742 32.1757
rtibia 15.793
rfoot -12.2384 -3.21489
rtoes 3.70416
lfemur -29.346 0.576501 -14.7107
ltibia 38.7732
lfoot -11.2193 7.79961
ltoes -6.07347
51
root 9.09615 17.5081 -21.675 -0.471523 -0.61904 -4.39807
lowerback 6.60846 0.507876 4.15392
upperback -0.0309339 1.13321 3.56773
thorax -3.7364 0.517936 1.25208
lowerneck -15.9523 -4.56563 -9.4341
upperneck 19.6085 -5.08842 5.22716
head 9.18236 -2.53123 2.70607
rclavicle -3.52843e-015 -1.03368e-014
rhumerus -29.4005 -10.9276 -76.9858
rradius 35.6551
rwrist 2.16633
rhand -11.3782 11.3896
rfingers 7.12502
rthumb 14.6561 -18.0724
lclavicle -3.52843e-015 -1.03368e-014
lhumerus -38.4852 16.7869 80.8664
lradius 21.9731
lwrist -10.1806
lhand -17.0909 21.882
lfingers 7.12502
lthumb 9.14759 51.6636
rfemur 5.14081 5.22306 32.1182
rtibia 15.1785
rfoot -12.3281 -3.40385
rtoes 2.47091
lfemur -29.434 -0.0729552 -14.6327
ltibia 36.2682
lfoot -11.2512 8.57703
ltoes -9.09641
52
root 9.10332 17.5078 -21.5286 -0.324149 -0.931112 -4.40688
lowerback 6.58138 0.682253 4.20077
upperback -0.0532415 1.36589 3.50645
thorax -3.73985 0.63168 1.14011
lowerneck -15.8767 -4.60881 -9.27262
upperneck 19.5064 -5.19403 5.22664
head 9.13655 -2.56875 2.66559
rclavicle 6.4605e-015 -1.59028e-014
rhumerus -29.1592 -10.7916 -77.1012
rradius 36.2291
rwrist 1.80582
rhand -11.2456 10.2396
rfingers 7.12502
rthumb 14.7839 -19.2131
lclavicle 6.4605e-015 -1.59028e-014
lhumerus -38.5435 17.0888 80.6315
lradius 21.9197
lwrist -11.1314
lhand -15.9323 23.5407
lfingers 7.12502
lthumb 10.2655 53.2702
rfemur 5.64375 5.30056 32.1392
rtibia 15.0304
rfoot -12.563 -3.46528
rtoes 2.99995
lfemur -29.3285 -0.81433 -14.3222
ltibia 33.5635
lfoot -11.0917 9.14802
ltoes -8.54615
53
root 9.11334 17.5076 -21.3759 -0.159035 -1.20482 -4.44059
lowerback 6.41595 0.781164 4.29768
upperback -0.0395117 1.49163 3.48444
thorax -3.62823 0.693706 1.05341
lowerneck -15.9987 -4.59099 -9.1828
upperneck 19.4402 -5.1743 5.2099
head 9.13105 -2.55213 2.64556
rclavicle 1.83876e-015 -3.97569e-015
rhumerus -28.7498 -10.5013 -77.2461
rradius 36.5907
rwrist 1.35853
rhand -11.9168 10.8592
rfingers 7.12502
rthumb 14.1372 -18.6398
lclavicle 1.83876e-015 -3.97569e-015
lhumerus -38.6275 17.5725 80.3755
lradius 22.2982
lwrist -13.0749
lhand -13.0577 26.9723
lfingers 7.12502
lthumb 13.0376 56.5448
rfemur 6.23862 5.33265 32.1583
rtibia 14.7172
rfoot -12.7346 -3.36908
rtoes 3.85248
lfemur -29.3127 -1.37687 -14.027
ltibia 31.1806
lfoot -10.8998 9.5005
ltoes -7.05901
54
root 9.12115 17.497 -21.2225 0.0361744 -1.38267 -4.30403
lowerback 6.05368 0.85148 4.14224
upperback 0.118625 1.53951 3.46623
thorax -3.26304 0.72628 1.12285
lowerneck -16.4346 -4.53371 -9.18287
upperneck 19.4529 -5.05755 5.23335
head 9.20625 -2.48823 2.66364
rclavicle -8.49804e-015 -6.36111e-015
rhumerus -28.159 -10.1379 -77.3954
rradius 36.8625
rwrist 0.717711
rhand -12.7911 12.4242
rfingers 7.12502
rthumb 13.2946 -17.1318
lclavicle -8.49804e-015 -6.36111e-015
lhumerus -38.4675 17.9257 80.3601
lradius 22.1015
lwrist -13.1098
lhand -13.4982 26.9322
lfingers 7.12502
lthumb 12.613 56.5314
rfemur 6.78361 5.24797 31.9935
rtibia 14.3817
rfoot -12.8252 -3.35507
rtoes 2.74003
lfemur -29.2861 -1.87435 -13.9259
ltibia 29.0359
lfoot -11.7894 9.92383
ltoes -4.6748
55
root 9.13047 17.4734 -21.0695 0.20508 -1.53153 -4.14052
lowerback 5.74932 0.92848 4.00967
upperback 0.173068 1.60682 3.37833
thorax -3.03577 0.7646 1.10536
lowerneck -16.3141 -4.57905 -9.1129
upperneck 19.2987 -5.14963 5.25254
head 9.13654 -2.52457 2.64694
rclavicle 1.18277e-014 -5.56597e-015
rhumerus -27.9167 -9.97374 -77.5022
rradius 37.2688
rwrist 0.320017
rhand -12.8483 12.9658
rfingers 7.12502
rthumb 13.2395 -16.5937
lclavicle 1.18277e-014 -5.56597e-015
lhumerus -38.5612 17.862 80.3867
lradius 22.0928
lwrist -13.0223
lhand -13.5261 26.5213
lfingers 7.12502
lthumb 12.586 56.1221
rfemur 7.32635 5.22187 31.784
rtibia 14.1004
rfoot -12.9188 -3.26408
rtoes 2.40312
lfemur -29.4161 -2.46687 -13.8154
ltibia 27.1693
lfoot -10.911 10.3824
ltoes -8.44177
56
root 9.13973 17.4556 -20.917 0.243318 -1.82 -4.06399
lowerback 5.71785 1.02951 3.93171
upperback 0.0565522 1.73869 3.32642
thorax -3.13812 0.828851 1.08417
lowerneck -15.7047 -4.60891 -9.08623
upperneck 19.0755 -5.26497 5.32435
head 8.95882 -2.57714 2.65915
rclavicle 9.11925e-015 4.77083e-015
rhumerus -27.9894 -9.7922 -77.5277
rradius 37.6475
rwrist 0.192446
rhand -12.6223 12.9311
rfingers 7.12502
rthumb 13.4573 -16.6142
lclavicle 9.11925e-015 4.77083e-015
lhumerus -38.9396 17.9764 80.166
lradius 21.9226
lwrist -13.3587
lhand -12.7746 25.9132
lfingers 7.12502
lthumb 13.3105 55.4682
rfemur 7.98003 5.33453 31.6737
rtibia 13.8849
rfoot -13.0199 -3.13829
rtoes 2.43992
lfemur -29.4499 -2.95025 -13.6016
ltibia 25.5781
lfoot -9.91044 10.5986
ltoes -8.1907
57
root 9.14504 17.4462 -20.7708 0.201685 -2.21127 -4.2604
lowerback 5.88528 1.13566 4.09981
upperback 0.0788085 1.90185 3.35879
thorax -3.20357 0.906645 1.00724
lowerneck -15.9207 -4.5697 -9.26805
upperneck 19.4797 -5.23519 5.66304
head 9.14932 -2.5402 2.81032
rclavicle 1.20265e-014 5.56597e-015
rhumerus -27.6572 -9.51381 -77.6716
rradius 37.8653
rwrist 0.078633
rhand -12.855 13.0525
rfingers 7.12502
rthumb 13.233 -16.5075
lclavicle 1.20265e-014 5.56597e-015
lhumerus -38.946 18.4246 79.8095
lradius 21.4531
lwrist -13.8404
lhand -12.494 24.6174
lfingers 7.12502
lthumb 13.5809 54.1544
rfemur 8.65437 5.60104 31.9132
rtibia 13.7146
rfoot -13.1107 -3.02994
rtoes 2.25597
lfemur -29.3713 -3.37605 -13.0505
ltibia 24.2585
lfoot -9.30829 10.8124
ltoes -6.2919
58
root 9.1494 17.4333 -20.6226 0.343566 -2.53027 -4.56709
lowerback 5.92889 1.23385 4.33868
upperback 0.125645 2.05192 3.45107
thorax -3.17325 0.978815 0.956519
lowerneck -16.456 -4.53209 -9.25255
upperneck 19.8762 -5.16033 5.70597
head 9.37937 -2.49323 2.82936
rclavicle 1.44119e-015 -1.59028e-014
rhumerus -27.1949 -9.38285 -77.7685
rradius 38.0082
rwrist 0.184505
rhand -13.4427 13.3712
rfingers 7.12502
rthumb 12.6665 -16.2247
lclavicle 1.44119e-015 -1.59028e-014
lhumerus -38.8511 18.6165 79.7199
lradius 21.2608
lwrist -14.3498
lhand -12.549 23.6501
lfingers 7.12502
lthumb 13.5279 53.1907
rfemur 9.12209 5.9196 32.2677
rtibia 13.5754
rfoot -13.1202 -3.01801
rtoes 2.02587
lfemur -29.5605 -3.88645 -12.3407
ltibia 23.248
lfoot -9.10894 11.1572
ltoes -11.8755
